<svg width="460" height="628" viewBox="0 0 460 628" fill="none" xmlns="http://www.w3.org/2000/svg">
<g style="mix-blend-mode:multiply">
<path d="M61 477.5C44.2 451.5 13.6667 379.667 0.5 347C14.5 362.6 56.3333 385.833 75.5 395.5C60.7 429.5 59.6667 464.333 61 477.5Z" stroke="black"/>
<path d="M397.5 446C341.5 380 178.833 359.833 104.5 358C99.3 376 102.333 389.833 104.5 394.5L95 399.5C65 456.7 75.1666 504.667 84 521.5C92.8333 541.833 111.8 585.2 117 596C122.2 606.8 124.5 615.5 125 618.5C205.8 634.1 310.333 625 352.5 618.5C352.167 614.833 352.4 606.9 356 604.5C360.5 601.5 369 582.5 369 578C369 574.4 377.667 549.833 382 538C380.8 515.6 391.833 467.333 397.5 446Z" stroke="black"/>
<path d="M88.5 195.5L93.5 276C106 255 123 252 148 271C168 286.2 185.333 280.667 191.5 276C226.3 272.8 239.667 285.333 242 292C266 314.8 280.667 308.833 285 303C317 298.6 330.333 313.167 333 321C355.4 344.2 370 343 374.5 339.5C406.5 323.9 416.833 350 418 365C418.4 355 430.833 309.5 437 288C430.6 266.4 401.667 258.333 388 257C386.5 264.833 381.7 285 374.5 303C365.5 325.5 358.5 315 352.5 303C347.7 293.4 354.5 260.333 358.5 245C336.1 216.6 308.5 215.167 297.5 218C294.833 231 288.6 259.8 285 271C281.4 282.2 270.167 275.667 265 271V203C240.6 185 205.833 190.5 191.5 195.5C192.167 199 193.1 212.3 191.5 237.5C189.5 269 175 258 163.5 257C154.3 256.2 149.333 209.667 148 186.5C114 174.9 94.1667 187.667 88.5 195.5Z" stroke="black"/>
<path d="M94 22.5C80.8 51.3 81.1667 101.5 83 123C103 107 128.667 112.333 139 117C135.8 86.2 144.667 43.8333 149.5 26.5C130.3 2.9 104.5 14 94 22.5Z" stroke="black"/>
<path d="M220 12C208.8 25.2 199.333 99.5 196 135C214.4 111.8 248 123 262.5 131.5C264.667 107.333 269.6 53.9 272 33.5C274.4 13.1 263 4.00001 257 2.00002C249.333 -0.166648 231.2 -1.19998 220 12Z" stroke="black"/>
<path d="M327 66C324.6 91.6 316 132.667 312 150C337.6 141.2 365 167 375.5 181C382.5 149 378 81.5 375.5 66C373.5 53.6 352.333 49.5 342 49C332.8 49.4 328.167 60.5 327 66Z" stroke="black"/>
<path d="M419 144L409.5 190.5C442.3 187.3 450.5 211.833 450.5 224.5C454.5 220.9 455.5 214.667 455.5 212C454 208.5 451.9 198.5 455.5 186.5C459.1 174.5 459 163.833 458.5 160C456.1 135.6 431.167 139.167 419 144Z" stroke="black"/>
</g>
</svg>
