<svg width="111" height="73" viewBox="0 0 111 73" fill="none" xmlns="http://www.w3.org/2000/svg">
<path d="M0.499996 4L9 39.5L30.5 41.5L26.5 18.5C29.8333 18.6667 41.3 18.9 60.5 18.5C79.7 18.1 85.8333 21.6667 86.5 23.5C87.8333 31.5 90.8 48.3 92 51.5C93.2 54.7 91.5 55.1667 90.5 55L16.5 53.5C16.6667 54.3333 17.7 57.8 20.5 65C23.3 72.2 36.6667 73 43 72.5L41 67.5C46.8333 67.6667 64.1 67.9 86.5 67.5C108.9 67.1 111.5 56.6667 110 51.5C109.333 47 107.4 34.6 105 21C102.6 7.4 91.6667 2.66667 86.5 2C60.8333 1.5 8.5 0.5 4.5 0.5C0.499996 0.5 0.166663 2.83333 0.499996 4Z" fill="#C53030" fill-opacity="0.5"/>
</svg>
