<svg width="1036" height="681" viewBox="0 0 1036 681" fill="none" xmlns="http://www.w3.org/2000/svg">
<g style="mix-blend-mode:multiply">
<path d="M494.5 280.5C501.7 310.9 511.167 363.833 515 386.5C554.5 371 573.5 379.5 587.5 391.5C601.5 403.5 599 423 592 462.5C586.4 494.1 592 516.667 595.5 524C619.9 560.8 613.667 589.333 607.5 599C591.5 628.5 581.5 630 570.5 629C561.7 628.2 554.5 625 552 623.5L565 657C595.4 685.4 625.333 682.167 636.5 677L721 657C748 634 998.5 414 1021 393.5C1039 377.1 1035.5 360.333 1031.5 354C1030.83 351.5 1026.9 344.4 1016.5 336C1006.1 327.6 983.5 339.5 973.5 346.5C946.667 363.167 885 401.8 853 423C821 444.2 816.667 398.833 818.5 373.5C822.667 306.5 832 161.8 836 119C840 76.2 832 60.1667 827.5 57.5C825 55.5 816.2 51 801 49C785.8 47 775.333 56.5 772 61.5C770.833 64 768.3 74.2 767.5 95C766.5 121 750.5 254 747.5 275C745.1 291.8 740.5 289 738.5 285.5C736.5 214.333 732.1 65.7 730.5 40.5C728.5 9 717.5 7.50001 709.5 3.00001C703.1 -0.599986 689.5 1.50001 683.5 3.00001C671.5 5.00001 667.833 23.1667 667.5 32L665.5 145C664.667 181 662.8 257 662 273C661.2 289 658 284.667 656.5 280.5L640 163C636.667 134 629.6 72.3 628 57.5C626.4 42.7001 617 34.3334 612.5 32C608.833 29.5 598.3 25.1 585.5 27.5C572.7 29.9 567.167 48.5 566 57.5C567.167 92.1667 569.5 163.2 569.5 170C569.5 178.5 580 280.5 581 299C581.8 313.8 578.667 311.5 577 308.5C565 272.667 540.4 197.5 538 183.5C535 166 532.5 162 527.5 145C523.5 131.4 506.833 126.333 499 125.5C498.167 125 493.3 125 480.5 129C467.7 133 466.833 150.667 468 159L476 201C479.167 214.833 487.3 250.1 494.5 280.5Z" fill="#FF3C3C" stroke="black"/>
<path d="M4.50002 331C-1.89998 322.6 1.83335 299.833 4.50002 289.5C20.1 292.7 29 299.5 31.5 302.5C52.6667 327.167 96.1 378 100.5 384C104.9 390 102.333 390.833 100.5 390.5L92 388L24.5 350.5C20.5 347.5 10.9 339.4 4.50002 331Z" fill="#FF3C3C" stroke="black"/>
</g>
</svg>
