
<svg stroke-miterlimit="10" style="fill-rule:nonzero;clip-rule:evenodd;stroke-linecap:round;stroke-linejoin:round;" version="1.1" viewBox="289.687 1239.27 492.199 225.7" xml:space="preserve" xmlns="http://www.w3.org/2000/svg" xmlns:xlink="http://www.w3.org/1999/xlink">
<defs/>
<g id="wrist" vectornator:layerName="wrist">
<path d="M517.439 1452.6C519.259 1453.74 521.08 1454.88 522.901 1456.02" fill="currentColor" fill-rule="nonzero" opacity="1" stroke="none" vectornator:layerName="Curve 1"/>
<path d="M347.416 1393.88C365.484 1420.98 388.285 1431.61 419.112 1438.95C423.342 1439.95 427.831 1439.42 432.086 1440.31C445.188 1443.07 457.364 1449.72 470.324 1452.6C476.876 1454.06 484.167 1453.29 490.808 1453.29" fill="currentColor" fill-rule="nonzero" opacity="1" stroke="none" vectornator:layerName="Curve 2"/>
<path d="M481.249 1454.65C498.795 1456.25 516.872 1458.17 534.509 1456.7C553.592 1455.11 572.671 1451.47 591.866 1450.55C607.447 1449.81 624.276 1450.94 639.664 1448.51C648.313 1447.14 656.904 1444.64 665.611 1443.73C670.144 1443.25 674.798 1443.94 679.267 1443.04C693.24 1440.25 705.67 1432.77 717.506 1425.29C722.751 1421.98 729.911 1417.9 733.893 1413C738.429 1407.42 741.085 1400.34 745.501 1394.56C749.424 1389.43 756.019 1385.12 759.158 1379.54C762.492 1373.61 763.161 1365.48 765.303 1359.06C767.014 1353.92 769.439 1349.06 771.449 1344.03C774.605 1336.14 784.069 1320.5 780.325 1311.94C778.554 1307.89 774.609 1305.05 772.814 1301.02C769.336 1293.19 769.153 1282.94 761.206 1277.8C755.61 1274.18 748.734 1272.77 743.453 1268.24C738.364 1263.88 735.321 1257.87 729.114 1254.58C722.835 1251.26 711.093 1246.39 703.849 1246.39C697.789 1246.39 697.251 1248.52 692.241 1251.17C684.056 1255.5 675.611 1259.97 667.659 1264.83C661.859 1268.37 657.072 1273.57 651.272 1277.12C640.325 1283.81 620.133 1292.23 607.571 1294.87C584.965 1299.63 561.131 1305.94 537.923 1307.16C513.764 1308.43 489.481 1304.46 465.544 1302.38C444.714 1300.57 423.476 1301.4 402.724 1298.28C388.923 1296.21 376.872 1288.98 363.803 1284.63C357.968 1282.68 351.428 1282.57 345.367 1281.9" fill="currentColor" fill-rule="nonzero" opacity="1" stroke="none" vectornator:layerName="Curve 3"/>
<path d="M314.683 1303.61C318.266 1309.35 321.795 1315.03 325.078 1320.94" fill="currentColor" fill-rule="nonzero" opacity="1" stroke="none" vectornator:layerName="Curve 4"/>
<path d="M357.647 1402.71C368.961 1406.48 379.602 1411.41 390.909 1415.18" fill="currentColor" fill-rule="nonzero" opacity="1" stroke="none" vectornator:layerName="Curve 5"/>
<path d="M295.208 1259.94C304.246 1283.63 310.685 1308.75 321.461 1331.79" fill="currentColor" fill-rule="nonzero" opacity="1" stroke="none" vectornator:layerName="Curve 6"/>
<path d="M349.562 1284.28C344.24 1282.01 338.486 1281.31 333.083 1279.2C328.628 1277.46 324.861 1274.4 320.732 1272.07C312.58 1267.45 303.591 1262.48 297.236 1255.41C294.17 1252.01 292.362 1248.32 289.687 1244.71" fill="currentColor" fill-rule="nonzero" opacity="1" stroke="none" vectornator:layerName="Curve 7"/>
<path d="M321.922 1316.59C325.522 1323.13 327.12 1329.66 331.541 1335.74" fill="currentColor" fill-rule="nonzero" opacity="1" stroke="none" vectornator:layerName="Curve 8"/>
<path d="M290.819 1247.46C299.186 1257.09 300.6 1275.33 305.028 1287.22C309.247 1298.54 315.732 1309.14 321.2 1319.9C323.656 1324.72 324.812 1330.01 326.869 1334.97C329.438 1341.15 332.749 1347.62 335.836 1353.57C337.818 1357.39 340.843 1360.68 342.646 1364.56C345.06 1369.76 345.313 1375.92 347.343 1381.27C350.245 1388.92 355.093 1396.16 361.977 1401C370.457 1406.98 382.442 1408.78 392.128 1412.17C407.415 1417.51 422.462 1423.62 437.659 1428.93C444.732 1431.4 452.252 1431.21 458.984 1435.19C459.904 1435.73 470.025 1443.27 470.031 1443.3C470.234 1444.28 469.38 1445.4 468.505 1445.88C466.548 1446.97 463.603 1444.08 461.813 1445.42C461.093 1445.95 462.071 1447.23 462.486 1448.03C462.883 1448.8 464.941 1449.57 464.183 1449.98C463.077 1450.58 453.579 1442.8 453.744 1441.92C453.925 1440.95 462.062 1442.37 462.869 1442.55C467.961 1443.73 482.207 1444.64 485.581 1439.5C490.42 1432.13 481.919 1423.72 481.544 1416.84C481.278 1411.96 487.206 1413.81 486.303 1408.25C484.677 1398.24 477.447 1392.6 471.787 1385.1C463.822 1374.55 457.91 1363.1 448.56 1353.64C445.917 1350.97 444.883 1346.9 443.02 1343.72C441.092 1340.43 438.194 1338.24 435.388 1335.72" fill="currentColor" fill-rule="nonzero" opacity="1" stroke="none" vectornator:layerName="Curve 9"/>
<path d="M392.673 1409.64C400.548 1414.29 408.28 1418.95 417.306 1421.02C423.191 1422.37 431.015 1421.31 436.314 1423.7C441.094 1425.85 445.176 1429.54 449.933 1431.74C455.4 1434.28 461.871 1435.91 467.608 1437.75C468.581 1438.06 471.649 1438.89 472.208 1440.15C474.025 1444.25 468.932 1444.94 466.488 1445.01C461.138 1445.17 457.208 1443.01 452.474 1440.85C452.266 1440.75 444.864 1436.81 445.11 1437.76C445.62 1439.75 451.693 1440.99 452.805 1441.36C459.609 1443.65 465.752 1445.15 472.902 1445.95C473.385 1446 480.682 1447.1 480.629 1447.35C480.417 1448.33 475.675 1448.8 475.026 1448.79C468.862 1448.62 463.162 1446.24 457.181 1445.21C454.225 1444.71 451.426 1445.27 448.568 1444.24C441.638 1441.75 435.251 1437.47 428.3 1435.12C424.442 1433.81 420.4 1435.1 416.784 1433.7C413.656 1432.49 411.189 1429.86 408.235 1428.33C404.234 1426.26 399.643 1425.42 396.036 1422.71" fill="currentColor" fill-rule="nonzero" opacity="1" stroke="none" vectornator:layerName="Curve 10"/>
<path d="M465.514 1418.78C463.082 1424.18 465.372 1430.45 469.038 1434.8C469.065 1434.83 472.609 1438.62 472.667 1438.84C473.305 1441.32 471.898 1442.37 470.031 1443.3C466.425 1445.1 459.218 1444.4 456.594 1441.38C454.65 1439.14 453.947 1435.75 451.492 1433.93C451.019 1433.58 446.464 1431.33 445.824 1432.8C445.69 1433.11 452.662 1438.06 453.488 1438.6C459.388 1442.45 465.653 1443.76 471.878 1446.61C473.468 1447.34 476.711 1446.79 476.755 1448.54C476.78 1449.52 475.386 1450.13 474.429 1450.33C471.856 1450.89 469.223 1444.57 466.477 1443.42C461.887 1441.49 456.9 1442.24 453.114 1438.69" fill="currentColor" fill-rule="nonzero" opacity="1" stroke="none" vectornator:layerName="Curve 11"/>
<path d="M694.162 1248.12C695.759 1246.55 696.761 1244.29 698.692 1243.15C706.132 1238.75 727.884 1250.11 734.656 1254.07C744.06 1259.58 755.451 1261.78 764.232 1268.77C768.73 1272.36 771.865 1278.85 774.175 1283.97C776.211 1288.49 779.417 1292.67 780.819 1297.48C783.31 1306.03 781.265 1318.55 776.533 1325.88" fill="currentColor" fill-rule="nonzero" opacity="1" stroke="none" vectornator:layerName="Curve 12"/>
<path d="M676.546 1260.46C681.576 1258.09 687.047 1254.6 690.613 1250.22C692.697 1247.67 693.847 1243.01 697.343 1241.84C700.605 1240.75 705.653 1242.23 708.818 1243.1C710.056 1243.44 712.536 1245.45 712.517 1244.17C712.495 1242.7 710.161 1242.34 708.799 1241.77C704.307 1239.91 698.697 1242.11 694.613 1244.03C693.564 1244.52 692.257 1246.35 691.464 1245.5C689.722 1243.64 694.384 1239.92 695.264 1239.62C698.009 1238.67 703.089 1239.93 706.01 1239.97" fill="currentColor" fill-rule="nonzero" opacity="1" stroke="none" vectornator:layerName="Curve 13"/>
<path d="M680.224 1260.2C684.485 1254.85 688.566 1247.97 693.374 1243.23C694 1242.61 698.518 1238.32 700.092 1240.98C700.686 1241.98 698.272 1242.44 697.363 1243.17" fill="currentColor" fill-rule="nonzero" opacity="1" stroke="none" vectornator:layerName="Curve 14"/>
<path d="M692.861 1256.94C694.039 1252.36 693.004 1254.46 696.041 1250.65C696.811 1249.69 699.066 1248.76 698.351 1247.76C697.356 1246.35 691.998 1251.5 691.962 1251.53C691.126 1252.3 690.356 1254.71 689.543 1253.92C688.622 1253.03 689.861 1251.26 690.613 1250.22C691.322 1249.24 692.639 1248.9 693.653 1248.23C694.666 1247.57 696.076 1245.2 696.692 1246.25C696.939 1246.66 691.176 1251.41 691.143 1251.44C690.282 1252.33 689.871 1255.01 688.833 1254.34C687.78 1253.66 689.482 1251.86 690.213 1250.84C690.962 1249.8 692.117 1249.12 693.143 1248.34C694.111 1247.62 695.169 1247.02 696.182 1246.36" fill="currentColor" fill-rule="nonzero" opacity="1" stroke="none" vectornator:layerName="Curve 15"/>
<path d="M691.833 1435.63C684.774 1441.04 676.645 1442.71 668.559 1445.95C658.497 1449.98 648.326 1453.09 637.683 1455.13C628.763 1456.84 619.677 1456.33 610.708 1457.19C597.916 1458.42 585.381 1461.01 572.545 1461.96C563.263 1462.65 554.191 1461.38 544.94 1461.36C526.122 1461.32 506.933 1461.25 488.247 1458.36C478.894 1456.92 467.823 1454.71 458.859 1451.74C455.638 1450.68 452.536 1448.99 449.251 1448.13C434.415 1444.23 420.189 1440.81 406.338 1434.05C399.263 1430.59 392.223 1429.57 385.977 1424.32" fill="currentColor" fill-rule="nonzero" opacity="1" stroke="none" vectornator:layerName="Curve 16"/>
<path d="M696.798 1431.62C690.094 1438.45 681.529 1442.19 672.782 1445.65C663.789 1449.21 654.728 1452.38 645.179 1454.28C636.183 1456.06 627.308 1456.14 618.203 1456.35C605.469 1456.64 592.281 1458.62 579.597 1459.82C568.281 1460.89 557.99 1460.68 546.657 1460.48C539.783 1460.36 532.256 1461.18 525.934 1458.09" fill="currentColor" fill-rule="nonzero" opacity="1" stroke="none" vectornator:layerName="Curve 17"/>
<path d="M686.676 1437.41C675.39 1446.04 662.544 1448.68 649.216 1452.6C642.779 1454.49 636.49 1456.52 629.858 1457.53" fill="currentColor" fill-rule="nonzero" opacity="1" stroke="none" vectornator:layerName="Curve 18"/>
<path d="M595.048 1461.14C583.27 1462.37 571.558 1464.45 559.723 1464.93C551.915 1465.24 543.984 1463.65 536.163 1463.51C528.98 1463.39 521.86 1464.21 514.684 1463.11C510.665 1462.5 506.796 1460.83 502.755 1460.29C496.388 1459.45 490.19 1459.69 483.846 1458.15C480.044 1457.22 476.303 1455.8 472.433 1455.15C468.878 1454.56 465.257 1454.97 461.729 1454.22C455.568 1452.91 449.777 1450.4 443.569 1449.22C439.439 1448.43 435.134 1448.15 431.044 1447.18C421.005 1444.81 411.345 1439.07 402.203 1434.6C398.103 1432.6 393.405 1432.19 389.395 1430.07C378.25 1424.18 367.92 1418 359.691 1408.27C357.962 1406.23 352.752 1400.03 352.773 1397.39C352.801 1393.87 354.099 1393.55 352.014 1390.15" fill="currentColor" fill-rule="nonzero" opacity="1" stroke="none" vectornator:layerName="Curve 19"/>
<path d="M624.062 1455.77C612.444 1457.34 601.2 1458.19 589.502 1458.43C585.626 1458.51 581.741 1458.94 577.864 1458.97C576.885 1458.98 574.05 1458.4 574.93 1458.83C577.043 1459.86 582.291 1459.16 584.594 1459.26C592.641 1459.59 601.433 1458.77 609.329 1457.38C613.883 1456.58 618.606 1457.23 623.208 1456.64C644.513 1453.95 671.674 1450.43 689.609 1437.55" fill="currentColor" fill-rule="nonzero" opacity="1" stroke="none" vectornator:layerName="Curve 20"/>
<path d="M693.284 1433.98C689.128 1441.06 679.153 1443.75 671.839 1446.26C653.191 1452.68 633.33 1457.5 613.472 1457.69C605.988 1457.76 598.224 1458.71 590.808 1459.71C587.992 1460.09 585.36 1459.89 582.531 1459.96C581.582 1459.99 579.377 1459.18 579.686 1460.08C579.759 1460.29 588.77 1460.08 589.777 1460.07C597.126 1460 604.532 1459.58 611.853 1459.68C630.003 1459.94 645.767 1455.77 662.998 1450.74C670.136 1448.66 677.589 1447.19 684.235 1443.73C691.583 1439.9 700.664 1434.95 703.478 1426.73" fill="currentColor" fill-rule="nonzero" opacity="1" stroke="none" vectornator:layerName="Curve 21"/>
<path d="M648.418 1450.28C631.841 1459.96 611.912 1458.27 593.67 1461.32C589.137 1462.08 583.836 1461.89 579.267 1461.38C578.257 1461.26 576.575 1461.93 576.244 1460.97C576.218 1460.9 578.941 1460.91 581.935 1460.75C586.183 1460.52 590.452 1460.43 594.693 1460.11C608.165 1459.08 627.163 1462.02 637.562 1451.42" fill="currentColor" fill-rule="nonzero" opacity="1" stroke="none" vectornator:layerName="Curve 22"/>
<path d="M638.377 1455.46C635.539 1456.81 633.489 1456.34 630.454 1456.75C626.721 1457.25 623.141 1458.51 619.348 1458.84C615.037 1459.21 610.672 1457.64 606.396 1457.24C605.163 1457.12 598.083 1457.31 597.417 1456.29C596.985 1455.62 606.61 1455.42 606.637 1455.42C607.181 1455.39 620.483 1453.87 620 1454.86C619.893 1455.08 614.218 1455.24 613.794 1455.27C612.298 1455.37 610.802 1455.48 609.313 1455.66C600.531 1456.7 591.983 1458.72 583.191 1456.85" fill="currentColor" fill-rule="nonzero" opacity="1" stroke="none" vectornator:layerName="Curve 23"/>
<path d="M354.906 1397.61C347.753 1396.58 342.706 1381.6 339.397 1375.94C335.38 1369.08 332.745 1361.8 329.519 1354.54C324.667 1343.63 320.013 1332.63 316.515 1321.17C315.279 1317.12 315.14 1312.74 314 1308.67C312.383 1302.89 310.554 1297.2 309.036 1291.39C308.496 1289.33 307.028 1285.34 308.191 1283.27C310.772 1278.68 316.37 1282.79 318.934 1284.67" fill="currentColor" fill-rule="nonzero" opacity="1" stroke="none" vectornator:layerName="Curve 24"/>
<path d="M350.53 1397.55C345.192 1394.42 342.026 1386.75 340.439 1381.09C336.965 1368.68 333.009 1356.61 333.004 1343.7" fill="currentColor" fill-rule="nonzero" opacity="1" stroke="none" vectornator:layerName="Curve 25"/>
<path d="M318.426 1316.69C315.768 1314.74 314.389 1310.53 313.036 1307.57C309.388 1299.56 307.399 1292.18 305.988 1283.47" fill="currentColor" fill-rule="nonzero" opacity="1" stroke="none" vectornator:layerName="Curve 26"/>
<path d="M318.319 1316.56C315.184 1314.49 313.972 1309.66 312.546 1306.27C311.899 1304.73 310.735 1303.44 310.188 1301.84C308.219 1296.11 307.47 1290 305.942 1284.16" fill="currentColor" fill-rule="nonzero" opacity="1" stroke="none" vectornator:layerName="Curve 27"/>
<path d="M317.217 1315.8C314.627 1314.28 314.242 1310.99 313.097 1308.38C310.151 1301.66 308.151 1295.77 306.571 1288.58C305.892 1285.49 304.723 1282.77 305.665 1279.64" fill="currentColor" fill-rule="nonzero" opacity="1" stroke="none" vectornator:layerName="Curve 28"/>
<path d="M318.35 1319.56C314.667 1317.25 312.123 1306.48 310.754 1302C309.248 1297.07 307.966 1292.03 306.203 1287.17C304.832 1283.4 302.247 1279.81 301.302 1275.89C300.841 1273.98 300.961 1271.9 300.658 1269.97C299.931 1265.35 298.357 1260.88 297.179 1256.37" fill="currentColor" fill-rule="nonzero" opacity="1" stroke="none" vectornator:layerName="Curve 29"/>
<path d="M310.615 1298.88C305.876 1297.88 306.608 1291.9 305.791 1288.18C303.774 1279.01 301.621 1269.35 298.405 1260.49C297.207 1257.19 294.877 1254.45 294.422 1251" fill="currentColor" fill-rule="nonzero" opacity="1" stroke="none" vectornator:layerName="Curve 30"/>
<path d="M336.953 1280.49C341.5 1276.76 346.668 1281.14 351.431 1282.38C360.2 1284.66 368.583 1288.24 377.468 1290.02C383.807 1291.29 389.653 1294.23 396 1295.3C419.71 1299.32 443.938 1300.29 467.919 1301.33C478.048 1301.77 487.926 1304.14 498.132 1304.07C527.166 1303.87 556.129 1306.75 585.203 1305.12C593.952 1304.63 602.678 1302.49 611.092 1300.16C612.521 1299.76 624.795 1296.42 624.933 1296.78C625.433 1298.09 618.468 1299.87 617.438 1300.2C607.68 1303.39 597.981 1304.74 587.858 1306.3C567.953 1309.37 548.659 1309.41 528.6 1308.91C521.413 1308.73 514.158 1309.69 506.979 1309.21C500.765 1308.79 494.551 1308.19 488.294 1307.84C486.171 1307.71 483.177 1307.99 483.148 1307.33C483.057 1305.28 492.944 1302.45 494.63 1302.11C500.945 1300.82 505.282 1302.61 511.452 1303.64C517.124 1304.6 523.389 1304.83 529.142 1304.57" fill="currentColor" fill-rule="nonzero" opacity="1" stroke="none" vectornator:layerName="Curve 31"/>
<path d="M377.356 1291.16C383.663 1289.98 390.117 1292.78 396.205 1294.4C403.648 1296.38 411.23 1296.99 418.704 1299.27C428.388 1302.21 439.392 1302.68 449.356 1304.59C456.946 1306.04 463.624 1309.78 470.966 1311.44C473.891 1312.11 476.898 1312.23 479.819 1313.01C488.081 1315.2 510.365 1327.57 516.393 1317.99" fill="currentColor" fill-rule="nonzero" opacity="1" stroke="none" vectornator:layerName="Curve 32"/>
<path d="M402.714 1296.31C407.717 1296.61 412.098 1297.7 416.896 1298.86C417.682 1299.05 419.354 1298.52 419.275 1299.32C419.161 1300.48 411.138 1299.49 409.111 1299.36C403.02 1298.97 396.769 1298.16 390.721 1297.32C387.06 1296.82 389.319 1297.04 385.504 1295.19C384.684 1294.8 382.091 1294.58 382.941 1294.25C385.302 1293.35 391.302 1295.35 393.897 1295.56C395.96 1295.72 398.035 1295.73 400.095 1295.94C400.934 1296.02 398.41 1295.84 397.568 1295.8C396.264 1295.75 394.959 1295.73 393.657 1295.65C390.996 1295.48 388.031 1295.16 385.468 1294.38C384.366 1294.05 381.09 1293.19 382.242 1293.14C384.569 1293.04 386.681 1294.66 388.991 1294.96C392.76 1295.46 393.381 1295.2 397.052 1295.18C397.974 1295.17 398.901 1295.13 399.819 1295.22C400.623 1295.29 403.003 1295.61 402.198 1295.68C396.21 1296.21 388.412 1294.81 382.573 1293.29C381.446 1293 380.343 1292.6 379.199 1292.38C378.258 1292.2 375.428 1291.81 376.34 1292.1C379.87 1293.23 388.958 1295.8 392.626 1294.39C393.38 1294.1 391.041 1294.07 390.247 1293.93C388.773 1293.66 387.296 1293.41 385.82 1293.15C384.345 1292.89 382.859 1292.68 381.394 1292.37C380.557 1292.19 378.073 1291.76 378.923 1291.66C379.822 1291.55 388.526 1293.65 388.496 1292.95C388.466 1292.27 383.022 1291.49 382.982 1291.48C382.074 1291.3 380.362 1289.95 380.271 1290.87C380.221 1291.38 386.728 1293.44 387.388 1293.65C395.217 1296.15 400.56 1296.02 406.394 1302.33" fill="currentColor" fill-rule="nonzero" opacity="1" stroke="none" vectornator:layerName="Curve 33"/>
<path d="M378.316 1290.79C387.52 1291.36 395.135 1295.52 404.041 1296.9C416.6 1298.84 429.396 1299.3 441.963 1301.09C445.679 1301.62 449.309 1303.08 453.047 1303.45C462.74 1304.4 473.473 1305.5 483.224 1305.37C490.003 1305.29 496.745 1303.87 503.482 1303.67C515.861 1303.31 528.273 1305.91 540.726 1305.37C552.405 1304.85 563.944 1302.8 575.524 1301.4C583.055 1300.48 590.679 1300.42 598.217 1299.58C605.373 1298.79 611.551 1295.99 618.388 1294.06C620.91 1293.35 626.138 1292.74 626.138 1292.74C626.138 1292.74 619.8 1295.44 616.816 1297.14C610.537 1300.72 601.069 1303.21 593.954 1300.67" fill="currentColor" fill-rule="nonzero" opacity="1" stroke="none" vectornator:layerName="Curve 34"/>
<path d="M378.387 1292.42C382.88 1292.65 386.393 1294.8 390.65 1295.7C396.256 1296.89 402.351 1295.9 408.1 1296.72C412.963 1297.41 417.585 1299.19 422.466 1299.75C429.018 1300.51 437.401 1299.09 443.531 1301.59C445.375 1302.34 446.311 1304.46 447.86 1305.71C448.567 1306.28 449.666 1306.15 450.423 1306.65C456.134 1310.48 452.359 1316.61 449.406 1320.53" fill="currentColor" fill-rule="nonzero" opacity="1" stroke="none" vectornator:layerName="Curve 35"/>
<path d="M379.163 1291.57C387.649 1297.87 404.984 1296.11 404.132 1310.07" fill="currentColor" fill-rule="nonzero" opacity="1" stroke="none" vectornator:layerName="Curve 36"/>
<path d="M378.964 1288.89C383.184 1291.37 386.278 1294.28 391.13 1295.52C394.246 1296.31 399.704 1295.5 402.418 1296.97C405.321 1298.55 404.392 1306.73 404.52 1309.65" fill="currentColor" fill-rule="nonzero" opacity="1" stroke="none" vectornator:layerName="Curve 37"/>
<path d="M375.41 1296.86C382.193 1295.01 386.172 1294.41 392.993 1295.35C395.788 1295.74 397.777 1295.2 400.539 1294.94C401.348 1294.86 403.265 1295.59 402.974 1294.83C402.204 1292.82 396.332 1295.45 394.785 1293.57C392.319 1290.56 399.321 1288.72 398.941 1290.05C398.205 1292.63 383.32 1290.01 380.715 1289.87" fill="currentColor" fill-rule="nonzero" opacity="1" stroke="none" vectornator:layerName="Curve 38"/>
<path d="M422.757 1302.67C420.068 1301.27 418.292 1300.04 416.049 1298.08C415.44 1297.55 414.824 1297.01 414.114 1296.62C413.42 1296.24 411.202 1296.22 411.883 1295.82C414.226 1294.45 432.623 1297.69 436.47 1298.24C436.682 1298.27 441.405 1298.7 441.412 1299.65C441.418 1300.51 439.874 1300.42 439.104 1300.81" fill="currentColor" fill-rule="nonzero" opacity="1" stroke="none" vectornator:layerName="Curve 39"/>
<path d="M378.499 1291.27C384.006 1290.24 387.852 1293.46 392.81 1294.87C399.495 1296.78 406.475 1297.27 413.169 1299.18" fill="currentColor" fill-rule="nonzero" opacity="1" stroke="none" vectornator:layerName="Curve 40"/>
<path d="M500.588 1302.58C499.647 1302.75 497.604 1302.16 497.764 1303.11C497.944 1304.16 502.398 1303.76 505.53 1303.99C510.702 1304.35 514.127 1305.08 519.273 1303.95C519.829 1303.83 528.208 1302.21 527.482 1303.83C526.25 1306.6 518.9 1305.37 516.725 1305.2C515.58 1305.11 514.44 1304.96 513.295 1304.86C512.454 1304.8 509.98 1305.03 510.768 1304.73C513.617 1303.64 518.003 1304.65 520.932 1304.69C527.204 1304.78 533.772 1303.14 539.934 1304.02" fill="currentColor" fill-rule="nonzero" opacity="1" stroke="none" vectornator:layerName="Curve 41"/>
<path d="M543.146 1303.06C542.402 1302.8 540.984 1303.05 540.915 1302.27C540.793 1300.88 548.843 1300.82 549.956 1300.73C560.548 1299.91 571.269 1300.42 581.854 1299.25C600.163 1297.22 619.227 1295.09 636.329 1287.74C643.29 1284.75 649.869 1281 656.801 1277.98C658.452 1277.26 660.101 1276.53 661.749 1275.81C662.458 1275.49 663.782 1273.97 663.816 1274.74C663.895 1276.54 661.241 1277.27 660.084 1278.65" fill="currentColor" fill-rule="nonzero" opacity="1" stroke="none" vectornator:layerName="Curve 42"/>
<path d="M538.214 1307.43C555.041 1307.14 570.909 1300.76 587.445 1298.76C588.702 1298.6 600.989 1298.2 601.004 1298.24C601.447 1299.4 590.225 1300.86 589.655 1300.94C578.911 1302.33 568.087 1303.87 557.221 1303.18C553.32 1302.93 549.403 1302.92 545.545 1302.15C544.705 1301.98 542.412 1301.98 543.074 1301.44C543.098 1301.42 556.752 1301.69 558.053 1301.76C568.738 1302.32 579.103 1301.77 589.711 1300.37C596.25 1299.5 602.445 1299.07 608.662 1296.69C611.706 1295.52 617.597 1292.71 617.597 1292.71C617.597 1292.71 615.113 1294.55 614.401 1295.86" fill="currentColor" fill-rule="nonzero" opacity="1" stroke="none" vectornator:layerName="Curve 43"/>
<path d="M543.926 1311.57C543.891 1310.76 543.395 1309.83 543.819 1309.13C546.344 1305.01 563.481 1303.37 568.105 1302.86C570.109 1302.64 572.096 1302.29 574.084 1301.95C574.862 1301.82 576.71 1302.34 576.427 1301.6C575.971 1300.41 572.054 1301.2 571.373 1301.33C565.186 1302.59 559.382 1304.08 553.014 1303.69C549.968 1303.5 546.941 1303.37 543.901 1303.6C543.009 1303.67 540.409 1303.43 541.226 1303.8C543.466 1304.8 546.127 1304.05 548.567 1304.29C558.348 1305.25 568.385 1303.26 578.27 1302.82" fill="currentColor" fill-rule="nonzero" opacity="1" stroke="none" vectornator:layerName="Curve 44"/>
<path d="M540.71 1303.17C546.082 1304.12 550.119 1307.28 555.776 1307.31C562.17 1307.34 568.563 1305.11 574.727 1303.63C577.645 1302.93 580.464 1303.13 583.381 1302.51C590.933 1300.91 598.205 1298.39 605.931 1297.46" fill="currentColor" fill-rule="nonzero" opacity="1" stroke="none" vectornator:layerName="Curve 45"/>
<path d="M573.977 1299.51C580.773 1300.18 587.053 1298.35 593.699 1298.56C597.283 1298.68 594.995 1299.71 599.085 1298.98C599.928 1298.83 601.942 1298.78 601.484 1298.06C600.932 1297.18 599.418 1297.93 598.385 1297.87" fill="currentColor" fill-rule="nonzero" opacity="1" stroke="none" vectornator:layerName="Curve 46"/>
<path d="M580.118 1300.46C584.149 1300.28 588.356 1299.25 592.315 1298.54C594.016 1298.24 597.578 1296.85 597.446 1296.85C590.97 1297.14 584.474 1300.15 577.831 1300.24C576.909 1300.25 575.986 1300.16 575.064 1300.2C574.089 1300.24 572.709 1301.29 572.149 1300.49C571.725 1299.88 574.135 1299.2 577.852 1298.85C581.226 1298.54 584.612 1298.37 587.981 1298" fill="currentColor" fill-rule="nonzero" opacity="1" stroke="none" vectornator:layerName="Curve 47"/>
<path d="M649.67 1278.12C657.931 1272.12 665.467 1265.43 673.491 1259.19C680.915 1253.41 689.173 1248.35 695.613 1241.37" fill="currentColor" fill-rule="nonzero" opacity="1" stroke="none" vectornator:layerName="Curve 48"/>
<path d="M671.124 1261.03C673.164 1259.15 675.49 1257.71 677.542 1255.88C683.065 1250.98 686.736 1244.48 692.77 1240.09" fill="currentColor" fill-rule="nonzero" opacity="1" stroke="none" vectornator:layerName="Curve 49"/>
<path d="M672.89 1257.29C678.577 1253.41 683.357 1249.35 688.427 1244.8C690.049 1243.34 692.734 1240.42 695.041 1240.17C695.954 1240.07 696.806 1240.68 697.688 1240.93" fill="currentColor" fill-rule="nonzero" opacity="1" stroke="none" vectornator:layerName="Curve 50"/>
<path d="M696.451 1244.82C686.641 1245.22 678.11 1257.2 670.666 1262.62C666.41 1265.71 661.566 1268.03 657.229 1271.01C653.107 1273.85 648.996 1277.32 644.308 1279.22C637.374 1282.01 627.342 1285.04 621.916 1290.42C618.07 1294.23 620.947 1297.49 619.165 1299.95C618.264 1301.19 616.411 1301.37 615.253 1302.38" fill="currentColor" fill-rule="nonzero" opacity="1" stroke="none" vectornator:layerName="Curve 51"/>
<path d="M640.608 1286.87C645.923 1282.06 652.321 1276.26 658.512 1272.53C665.023 1268.61 671.779 1267.06 677.616 1261.98C680.974 1259.07 683.707 1255.53 686.998 1252.53C688.158 1251.47 689.356 1250.46 690.534 1249.42C691.093 1248.93 692.961 1248.01 692.219 1247.96C686.517 1247.56 681.878 1256.57 678.214 1259.52C677.498 1260.09 676.747 1260.62 676.014 1261.18C675.281 1261.73 674.258 1263.64 673.814 1262.84C673.336 1261.97 675.032 1261.28 675.637 1260.5C676.192 1259.78 676.708 1259.03 677.293 1258.34C679.754 1255.42 682.395 1252.73 685.339 1250.33C685.915 1249.86 687.461 1249.47 687.023 1248.87C685.706 1247.06 677.851 1256.47 676.735 1257.49C676.186 1257.99 675.527 1258.38 675.051 1258.95C674.463 1259.66 672.772 1261.72 673.576 1261.28C677.164 1259.3 679.661 1253.16 684.323 1251.07C685.097 1250.72 688.836 1249.63 690.019 1249.62C690.908 1249.61 692.791 1249.16 692.652 1250.03C692.558 1250.63 684.448 1255.28 683.644 1255.81C682.728 1256.41 681.832 1257.04 680.929 1257.66C680.305 1258.09 678.55 1259.52 679.063 1258.96C682.365 1255.38 687.512 1252.64 691.607 1250.08C691.905 1249.89 695.392 1248.02 695.506 1247.3C695.928 1244.63 687.907 1243.66 687.72 1248.84" fill="currentColor" fill-rule="nonzero" opacity="1" stroke="none" vectornator:layerName="Curve 52"/>
<path d="M674.958 1265.23C677.661 1257.83 681.685 1255.82 688.196 1251.96C690.399 1250.66 692.406 1249.2 694.475 1247.69C695.153 1247.2 696.474 1245.38 696.508 1246.21C696.542 1247.06 684.12 1254.78 682.766 1255.67C681.083 1256.78 679.43 1257.93 677.851 1259.18C677.257 1259.65 676.351 1261.14 675.985 1260.48C675.367 1259.36 685.124 1252.41 686.607 1251.5C687.495 1250.96 688.407 1250.46 689.337 1250C690.061 1249.63 692.373 1249 691.565 1249.03C687.709 1249.19 684.434 1253.13 682.069 1255.7C681.457 1256.36 680.897 1258.3 680.232 1257.69C679.378 1256.91 682.005 1254.57 683.892 1253.36C688.761 1250.22 694.134 1248.3 699.671 1246.78" fill="currentColor" fill-rule="nonzero" opacity="1" stroke="none" vectornator:layerName="Curve 53"/>
<path d="M749.183 1391.84C745.637 1397.12 741.017 1401.72 737.114 1406.74" fill="currentColor" fill-rule="nonzero" opacity="1" stroke="none" vectornator:layerName="Curve 54"/>
<path d="M778.747 1301.81C781.659 1314.27 778.594 1326.35 774.415 1338.21C766.064 1361.89 757.294 1386.76 739.003 1404.63C735.27 1408.27 731.79 1412.55 727.214 1415.18" fill="currentColor" fill-rule="nonzero" opacity="1" stroke="none" vectornator:layerName="Curve 55"/>
<path d="M763.225 1368.54C761.172 1371.92 759.801 1375.73 757.868 1379.2C750.595 1392.26 740.67 1404.29 729.612 1414.19" fill="currentColor" fill-rule="nonzero" opacity="1" stroke="none" vectornator:layerName="Curve 56"/>
<path d="M779.708 1306.55C781 1309.25 780.148 1312.49 779.711 1315.35C779.684 1315.53 778.964 1319.66 778.866 1319.58C778.353 1319.19 779.558 1314.42 779.598 1313.72C779.643 1312.89 779.681 1307.76 779.906 1307.76C781.085 1307.8 780.846 1310 780.838 1311.18C780.83 1312.29 779.761 1322.04 779.008 1322.55C778.609 1322.81 779.196 1321.61 779.29 1321.14C779.412 1320.52 779.534 1319.91 779.656 1319.3C780.033 1317.41 779.944 1318.02 780.219 1315.75C780.543 1313.06 780.717 1310.15 780.555 1307.45C780.525 1306.95 779.962 1306.17 780.413 1305.96C781.309 1305.53 781.543 1310.17 781.543 1310.58C781.545 1315.49 780.686 1319.55 779.262 1324.21" fill="currentColor" fill-rule="nonzero" opacity="1" stroke="none" vectornator:layerName="Curve 57"/>
<path d="M761.253 1376.94C757.448 1385.38 750.587 1392.6 744.333 1399.24" fill="currentColor" fill-rule="nonzero" opacity="1" stroke="none" vectornator:layerName="Curve 58"/>
<path d="M777.175 1323.65C778.471 1329.2 775.473 1336 773.936 1341.34C770.246 1354.16 764.966 1365.88 757.839 1377.14C755.086 1381.49 752.825 1386.22 749.126 1389.93" fill="currentColor" fill-rule="nonzero" opacity="1" stroke="none" vectornator:layerName="Curve 59"/>
<path d="M776.273 1327.43C778.29 1331.64 771.427 1345.82 769.567 1350.73C768.065 1354.7 766.071 1358.45 764.323 1362.3C760.49 1370.74 757.424 1379.66 752.398 1387.5C751.514 1388.88 750.183 1389.89 749.296 1391.28C747.099 1394.72 745.193 1398.8 742.359 1401.78C739.19 1405.11 735.071 1407.98 731.67 1411.23" fill="currentColor" fill-rule="nonzero" opacity="1" stroke="none" vectornator:layerName="Curve 60"/>
<path d="M757.67 1377.26C757.341 1382.34 753.874 1386.57 751.045 1390.6C746.92 1396.48 742.348 1401.88 737.735 1407.31C734.71 1410.87 729.757 1413.43 726.115 1416.28" fill="currentColor" fill-rule="nonzero" opacity="1" stroke="none" vectornator:layerName="Curve 61"/>
<path d="M759.87 1375.05C760.355 1373.33 760.614 1371.74 760.884 1369.98C760.956 1369.5 760.686 1368.55 761.165 1368.57C762.463 1368.61 761.225 1372.68 761.139 1373.11C760.488 1376.36 758.988 1380.27 757.108 1383.01C750.89 1392.06 744.591 1400.85 736.861 1408.75C733.082 1412.6 727.309 1415.58 724.226 1419.87" fill="currentColor" fill-rule="nonzero" opacity="1" stroke="none" vectornator:layerName="Curve 62"/>
<path d="M761.56 1365.86C763.824 1371.84 759.372 1379.59 756.375 1384.48C749.688 1395.38 740.734 1404.91 732.208 1414.42C730.108 1416.76 727.261 1418.33 725.1 1420.63" fill="currentColor" fill-rule="nonzero" opacity="1" stroke="none" vectornator:layerName="Curve 63"/>
</g>
</svg>
